<?xml version="1.0" standalone="no"?>
<!DOCTYPE svg PUBLIC "-//W3C//DTD SVG 20010904//EN"
 "http://www.w3.org/TR/2001/REC-SVG-20010904/DTD/svg10.dtd">
<svg version="1.0" xmlns="http://www.w3.org/2000/svg"
 width="500.000000pt" height="500.000000pt" viewBox="0 0 500.000000 500.000000"
 preserveAspectRatio="xMidYMid meet">

<g transform="translate(0.000000,500.000000) scale(0.100000,-0.100000)"
fill="#000000" stroke="none">
<path d="M2481 3893 c-6 -43 -13 -101 -17 -129 l-6 -52 64 -11 c101 -17 135
-15 163 14 30 29 31 45 5 77 -19 25 -19 26 0 43 33 30 24 77 -19 99 -14 8 -49
17 -76 21 -28 3 -62 8 -76 11 -26 5 -27 4 -38 -73z m157 5 c17 -14 15 -45 -4
-52 -8 -3 -33 -3 -55 0 -34 6 -39 10 -39 34 0 14 2 29 5 31 7 8 79 -3 93 -13z
m-7 -109 c23 -12 24 -32 4 -49 -18 -15 -115 -4 -115 13 0 7 3 23 7 36 5 21 10
22 46 17 22 -4 48 -11 58 -17z"/>
<path d="M2166 3879 c-14 -11 -26 -16 -26 -10 0 13 -37 15 -44 2 -6 -9 20
-177 29 -191 3 -4 16 -5 31 -2 21 4 24 9 20 26 -4 11 -9 42 -13 67 -5 43 -3
48 21 64 16 11 26 26 26 41 0 29 -10 30 -44 3z"/>
<path d="M1943 3833 c-31 -6 -83 -69 -83 -99 0 -89 102 -135 180 -81 19 12 35
27 37 34 7 19 -35 26 -53 9 -24 -25 -63 -31 -82 -13 -13 14 -13 17 -1 21 91
32 129 49 129 57 0 5 -12 22 -27 38 -29 31 -61 42 -100 34z m57 -53 c18 -11
15 -14 -34 -34 -47 -20 -56 -20 -56 -2 0 36 55 58 90 36z"/>
<path d="M2770 3828 c0 -22 14 -33 43 -35 35 -2 57 -19 57 -43 0 -16 -3 -17
-44 -2 -64 23 -100 9 -104 -39 -4 -44 13 -60 73 -67 24 -2 43 -8 40 -12 -2 -4
6 -12 19 -18 27 -12 27 -11 60 91 19 59 9 89 -36 117 -37 22 -108 27 -108 8z
m69 -117 c21 -13 5 -41 -22 -41 -27 0 -52 24 -42 40 8 12 45 13 64 1z"/>
<path d="M2272 3761 c-8 -4 -12 -19 -10 -32 4 -29 45 -34 61 -7 19 30 -19 60
-51 39z"/>
<path d="M1718 3723 c-21 -8 -40 -23 -43 -33 -3 -11 -12 -17 -18 -14 -7 2 -21
-1 -30 -9 -17 -12 -13 -21 48 -122 36 -60 69 -113 73 -117 4 -3 16 0 27 8 20
15 20 15 -1 54 l-21 38 33 7 c40 7 74 47 74 86 0 84 -68 133 -142 102z m67
-58 c14 -13 25 -32 25 -41 0 -24 -29 -54 -53 -54 -53 0 -77 75 -35 104 30 21
35 20 63 -9z"/>
<path d="M2965 3704 c-65 -70 -18 -174 79 -177 43 -1 51 5 37 31 -7 13 -18 18
-33 15 -29 -6 -61 27 -56 58 2 12 15 31 30 42 25 19 28 19 52 3 14 -9 26 -23
26 -31 0 -9 10 -15 25 -15 30 0 33 24 7 56 -41 52 -127 61 -167 18z"/>
<path d="M3259 3692 c-4 -10 -90 -109 -141 -164 -33 -34 -34 -40 -10 -62 18
-15 20 -15 37 4 10 11 26 20 37 20 15 0 18 -8 18 -53 0 -40 5 -58 18 -70 28
-26 32 -21 32 41 0 31 4 62 8 69 4 6 31 15 60 19 50 6 52 8 36 25 -12 13 -34
19 -82 21 l-65 3 47 54 c25 30 46 58 46 61 0 13 -38 41 -41 32z"/>
<path d="M1498 3564 c-53 -28 -74 -107 -42 -153 22 -31 74 -52 107 -43 14 4
39 19 56 35 27 23 31 34 31 76 0 43 -4 53 -31 75 -35 30 -79 33 -121 10z m84
-51 c27 -24 23 -69 -8 -89 -24 -16 -27 -16 -52 3 -33 24 -39 58 -16 84 21 23
51 24 76 2z"/>
<path d="M1283 3451 c-10 -16 -2 -25 60 -78 40 -32 88 -71 108 -86 36 -27 36
-27 54 -7 17 19 17 20 -11 42 -16 13 -62 51 -102 86 -41 34 -79 62 -86 62 -6
0 -16 -8 -23 -19z"/>
<path d="M3325 3400 c-8 -13 7 -39 38 -68 21 -20 26 -21 36 -8 10 12 7 21 -16
51 -28 35 -47 43 -58 25z"/>
<path d="M3459 3304 c-51 -31 -99 -62 -106 -68 -9 -8 0 -30 35 -88 57 -93 58
-94 76 -78 14 11 14 16 -1 44 -9 17 -24 42 -34 55 -25 31 -24 36 6 49 34 16
29 18 62 -33 15 -25 33 -45 40 -45 24 0 23 21 -4 71 -27 49 -28 50 -9 65 11 8
23 14 28 14 4 0 22 -25 39 -55 29 -52 50 -67 64 -45 3 5 -4 26 -15 47 -56 101
-66 117 -76 120 -5 2 -53 -22 -105 -53z"/>
<path d="M1257 3277 c-31 -29 -37 -41 -37 -75 0 -83 98 -133 162 -82 27 21 58
77 58 105 0 32 -43 13 -52 -23 -8 -31 -50 -63 -64 -49 -4 4 10 34 30 68 23 38
33 66 28 71 -5 5 -27 12 -49 15 -35 5 -44 1 -76 -30z m68 -44 c-36 -56 -42
-63 -48 -56 -11 11 -8 58 5 71 7 7 23 12 36 12 24 0 24 0 7 -27z"/>
<path d="M1162 3120 c-9 -22 -4 -31 46 -82 l55 -57 -78 -3 c-70 -3 -79 -5 -86
-25 -8 -23 -8 -23 100 -23 106 0 108 0 120 26 11 25 8 30 -68 107 -78 80 -80
81 -89 57z"/>
<path d="M3545 3069 c-44 -17 -81 -32 -83 -33 -1 -2 0 -15 3 -29 l7 -26 51 20
c67 26 99 22 112 -14 11 -34 -3 -48 -77 -75 -49 -17 -55 -25 -38 -52 8 -13 16
-12 66 5 75 25 104 49 104 85 0 32 -19 80 -31 80 -5 0 -8 8 -7 18 3 34 -2 52
-14 51 -7 0 -49 -14 -93 -30z"/>
<path d="M1095 2857 c-20 -17 -28 -35 -32 -70 -5 -43 -3 -49 30 -82 46 -46 84
-47 133 -2 29 26 37 42 40 77 5 51 -5 74 -29 64 -12 -4 -17 -18 -17 -50 0 -33
-5 -46 -22 -59 -30 -21 -33 -8 -15 78 l15 67 -39 0 c-25 0 -47 -8 -64 -23z
m54 -69 c-5 -24 -11 -47 -12 -52 -2 -5 -11 -1 -20 8 -31 32 -16 86 24 86 15 0
16 -6 8 -42z"/>
<path d="M3571 2811 c-24 -23 -31 -37 -31 -68 0 -21 7 -49 16 -61 8 -12 10
-22 5 -22 -13 0 -14 -20 -2 -38 7 -11 28 -11 122 3 148 21 149 21 149 52 0 24
-2 25 -48 18 l-47 -6 3 45 c4 40 0 49 -26 76 -42 41 -97 42 -141 1z m118 -45
c21 -25 9 -69 -22 -84 -24 -12 -31 -11 -53 2 -26 18 -33 63 -12 84 17 17 73
15 87 -2z"/>
<path d="M1055 2634 c-55 -28 -70 -59 -73 -161 l-4 -93 60 0 c32 0 92 3 133 6
l74 6 -5 87 c-6 95 -23 132 -71 157 -36 18 -76 18 -114 -2z m110 -68 c24 -25
42 -85 31 -111 -4 -12 -23 -15 -86 -15 l-80 0 0 50 c0 41 5 56 25 75 32 33 78
33 110 1z"/>
<path d="M3551 2420 c-25 -115 -3 -188 64 -216 46 -19 68 -18 116 6 44 23 53
40 75 144 11 52 12 71 3 77 -11 7 -203 39 -233 39 -9 0 -18 -17 -25 -50z m157
-26 c51 -8 59 -22 43 -74 -20 -68 -82 -90 -135 -49 -22 17 -26 28 -26 73 0 62
5 69 45 62 16 -3 50 -8 73 -12z"/>
<path d="M1146 2214 c-65 -23 -120 -45 -123 -48 -3 -3 -3 -16 1 -30 6 -24 7
-25 41 -10 48 20 52 18 52 -16 0 -42 33 -83 75 -94 92 -23 166 84 108 157 -11
14 -20 29 -19 34 4 21 -2 53 -8 52 -5 -1 -61 -21 -127 -45z m102 -50 c27 -18
29 -61 5 -80 -24 -18 -68 -18 -82 0 -20 24 -9 69 19 83 32 16 31 16 58 -3z"/>
<path d="M3508 2163 c-30 -19 -48 -59 -48 -109 0 -27 3 -31 20 -27 14 4 20 14
20 32 0 28 40 76 58 70 6 -2 -3 -35 -18 -74 -30 -76 -28 -85 26 -85 67 0 117
77 94 145 -20 60 -95 83 -152 48z m110 -65 c7 -7 12 -18 12 -25 0 -18 -36 -53
-55 -53 -12 0 -12 7 3 45 18 48 21 52 40 33z"/>
<path d="M1282 1991 c-33 -22 -63 -49 -67 -60 -11 -36 4 -80 35 -97 15 -10 26
-22 24 -28 -3 -7 1 -19 8 -29 12 -16 20 -13 95 31 82 47 95 64 61 85 -12 8
-25 5 -55 -14 -56 -37 -69 -40 -94 -20 -34 27 -20 61 40 96 52 31 59 43 39 63
-17 17 -18 16 -86 -27z"/>
<path d="M3376 1928 c-18 -25 -23 -13 63 -141 l45 -67 14 25 c12 23 9 30 -28
85 -45 66 -44 66 45 49 53 -10 60 -9 72 7 7 10 13 21 13 24 0 5 -178 41 -202
40 -4 0 -14 -10 -22 -22z"/>
<path d="M1461 1826 c-11 -13 -8 -22 18 -54 16 -22 37 -45 46 -52 14 -12 13
-15 -7 -37 l-22 -23 -46 45 c-42 41 -48 44 -60 30 -11 -14 -7 -22 31 -61 l44
-45 -25 -20 -25 -19 -48 51 c-44 47 -50 50 -64 36 -14 -14 -10 -22 48 -86 35
-39 66 -71 69 -71 6 0 19 12 138 124 l52 48 -29 37 c-16 20 -47 53 -69 74 -34
33 -40 36 -51 23z"/>
<path d="M3274 1781 c-59 -36 -89 -111 -44 -111 11 0 20 7 20 15 0 23 46 65
70 65 29 0 25 -9 -31 -70 l-50 -55 22 -17 c29 -24 90 -23 122 2 58 46 51 142
-12 174 -39 21 -59 20 -97 -3z m106 -96 c0 -28 -41 -60 -65 -51 -13 5 -10 13
16 46 34 42 49 44 49 5z"/>
<path d="M3127 1647 c-16 -11 -10 -22 69 -117 47 -58 91 -104 98 -102 33 10
35 24 8 61 -15 20 -29 38 -32 41 -3 3 -29 33 -59 68 -29 34 -56 62 -60 62 -4
0 -15 -6 -24 -13z"/>
<path d="M1570 1586 c-9 -12 -4 -20 31 -45 41 -30 59 -32 59 -6 0 13 -55 65
-70 65 -4 0 -13 -6 -20 -14z"/>
<path d="M1724 1575 c-4 -9 3 -23 16 -33 l23 -19 -23 -41 c-25 -45 -31 -48
-60 -32 -26 14 -40 -26 -15 -44 14 -10 15 -17 7 -32 -9 -16 -7 -23 10 -33 16
-10 23 -10 38 4 9 8 24 13 32 10 19 -7 33 22 19 39 -7 8 -2 26 15 55 32 57 31
94 -2 120 -31 25 -52 27 -60 6z"/>
<path d="M3004 1564 c-46 -22 -70 -73 -58 -120 18 -73 100 -100 164 -54 60 43
64 118 9 164 -35 30 -70 32 -115 10z m80 -50 c9 -8 16 -31 16 -50 0 -27 -5
-37 -26 -46 -30 -14 -52 -4 -73 34 -13 23 -13 29 2 52 20 30 57 35 81 10z"/>
<path d="M2828 1549 c-15 -8 -16 -13 -3 -49 l14 -40 -35 0 c-52 0 -94 -45 -94
-100 0 -85 87 -130 160 -82 14 9 32 15 40 14 8 -1 21 2 29 7 11 7 5 32 -30
132 -24 67 -48 124 -54 125 -5 2 -18 -1 -27 -7z m24 -146 c34 -31 12 -103 -33
-103 -19 0 -59 45 -59 66 0 19 37 54 57 54 9 0 25 -7 35 -17z"/>
<path d="M1849 1453 c-42 -109 -22 -164 59 -165 23 0 39 -4 37 -9 -7 -10 32
-32 44 -25 9 6 75 176 70 180 -35 29 -43 24 -70 -37 -23 -55 -29 -62 -56 -65
-51 -5 -60 19 -34 91 21 58 21 62 5 74 -27 20 -31 17 -55 -44z"/>
<path d="M2103 1396 c-27 -20 -46 -76 -37 -110 3 -14 20 -37 36 -51 68 -57
178 -14 178 69 0 19 5 38 10 41 12 7 13 42 2 49 -4 2 -43 7 -87 11 -65 5 -84
3 -102 -9z m99 -38 c31 -24 23 -92 -13 -103 -30 -10 -69 20 -69 52 0 50 46 78
82 51z"/>
<path d="M2555 1403 c-34 -7 -65 -26 -65 -39 0 -17 28 -26 50 -14 31 17 60 12
60 -9 0 -15 -11 -20 -57 -27 -56 -9 -58 -10 -58 -39 0 -37 51 -75 104 -76 l36
-1 -35 -8 c-19 -5 -52 -12 -72 -15 -29 -4 -38 -11 -38 -25 0 -23 -2 -23 111
-8 l88 11 0 51 c-1 28 2 68 6 89 6 31 3 44 -14 68 -11 15 -21 33 -21 39 0 10
-55 12 -95 3z m50 -153 c-3 -5 -12 -10 -20 -10 -8 0 -17 5 -20 10 -4 6 5 10
20 10 15 0 24 -4 20 -10z"/>
<path d="M2370 1331 c0 -64 -15 -91 -51 -91 -13 0 -19 -7 -19 -24 0 -23 3 -24
70 -24 l70 -1 0 100 0 99 -35 0 -35 0 0 -59z"/>
</g>
</svg>
